<svg id="Layer_1" data-name="Layer 1" xmlns="http://www.w3.org/2000/svg" viewBox="0 0 129.68 65.18">
    <defs>
        <style>
            .cls-1 {
                fill: #f1f0f0;
            }

            .cls-2 {
                isolation: isolate;
            }
        </style>
    </defs>
    <g id="Group_2" data-name="Group 2">
        <g id="Group_1" data-name="Group 1">
            <path id="Path_1" data-name="Path 1" class="cls-1"
                d="M24.82,18.86A12.27,12.27,0,0,0,14.4,24.29v-4.8H4.91V62.94H14.4V48.58a12.84,12.84,0,0,0,10.42,5c7.93,0,15.23-6.12,15.23-17.3v-.12c0-11.18-7.42-17.29-15.23-17.29m5.75,17.41c0,5.62-3.75,9.24-8.18,9.24s-8.12-3.68-8.12-9.24v-.12c0-5.56,3.68-9.24,8.12-9.24s8.18,3.68,8.18,9.24Z"
                transform="translate(-4.91 -7.38)" />
            <rect id="Rectangle_1" data-name="Rectangle 1" class="cls-1" x="53.47" width="9.49" height="45.57" />
            <path id="Path_2" data-name="Path 2" class="cls-1"
                d="M134,27.6V19.49h-7.86V10.93h-9.49v8.56h-4V27.6h4V43.46c0,7.74,3.93,10,9.74,10a14,14,0,0,0,7.49-1.94V44a9.8,9.8,0,0,1-4.68,1.19c-2.12,0-3.06-1.07-3.06-3.25V27.6Z"
                transform="translate(-4.91 -7.38)" />
            <rect id="Rectangle_2" data-name="Rectangle 2" class="cls-1" x="38.92" y="12.11" width="9.49"
                height="33.46" />
            <path id="Path_3" data-name="Path 3" class="cls-1"
                d="M48.72,7.38a4.89,4.89,0,1,0,4.89,4.88h0a4.88,4.88,0,0,0-4.89-4.88"
                transform="translate(-4.91 -7.38)" />
            <path id="Path_4" data-name="Path 4" class="cls-1"
                d="M112.62,34.73a1.6,1.6,0,0,0-.74.19l-.11.07a2.37,2.37,0,0,1-1.3.32l-1.76,0a16.67,16.67,0,0,0-4.25-10.27l1.27-1.23a2.38,2.38,0,0,1,1.12-.69l.15,0a1.54,1.54,0,1,0-.85-2.95,1.52,1.52,0,0,0-1.09,1.23,2.39,2.39,0,0,1-.56,1l-1.35,1.4A16.77,16.77,0,0,0,92.87,19.5l0-1.95a2.38,2.38,0,0,1,.29-1.07A1.53,1.53,0,0,0,90.7,14.7a1.5,1.5,0,0,0-.29.89,1.57,1.57,0,0,0,.19.74,1,1,0,0,1,.07.12A2.34,2.34,0,0,1,91,17.74l0,1.76a16.74,16.74,0,0,0-10.27,4.26l-1.23-1.27a2.38,2.38,0,0,1-.69-1.12s0-.1,0-.15a1.55,1.55,0,0,0-1.9-1,1.53,1.53,0,0,0,.18,3,2.26,2.26,0,0,1,1,.56l1.4,1.34a16.77,16.77,0,0,0-4.26,10.28l-1.76,0A2.44,2.44,0,0,1,72.13,35L72,34.93a1.53,1.53,0,1,0,.16,2.58,2.38,2.38,0,0,1,1.07-.29l1.94,0a16.76,16.76,0,0,0,4.26,10.29L78,48.83a2.26,2.26,0,0,1-1,.55,1.53,1.53,0,0,0,.5,3,1.55,1.55,0,0,0,1.22-1.08l0-.13a2.44,2.44,0,0,1,.69-1.14l1.23-1.27A16.74,16.74,0,0,0,91,53l0,1.76a2.38,2.38,0,0,1-.31,1.28l-.08.13a1.54,1.54,0,1,0,2.58-.16A2.38,2.38,0,0,1,92.9,55l0-1.93a16.71,16.71,0,0,0,10.28-4.26l1.36,1.4a2.26,2.26,0,0,1,.55,1,1.53,1.53,0,0,0,3-.5A1.5,1.5,0,0,0,107,49.42l-.13,0a2.49,2.49,0,0,1-1.14-.69l-1.26-1.22a16.77,16.77,0,0,0,4.26-10.28l1.94,0a2.31,2.31,0,0,1,1.07.29,1.53,1.53,0,1,0,.89-2.78m-9.18.69-5.21.08a6.31,6.31,0,0,0-1.3-3.13l3.74-3.63a11.34,11.34,0,0,1,2.77,6.68m-11.5,4.63a3.78,3.78,0,1,1,3.79-3.78,3.78,3.78,0,0,1-3.79,3.78m7.55-12.49-3.61,3.75A6.26,6.26,0,0,0,92.67,30l.1-5.21a11.44,11.44,0,0,1,6.73,2.79m-8.4-2.79L91.18,30A6.2,6.2,0,0,0,88,31.29l-3.62-3.75a11.47,11.47,0,0,1,6.68-2.77m-7.86,3.95L87,32.33a6.3,6.3,0,0,0-1.33,3.17l-5.21-.08a11.39,11.39,0,0,1,2.79-6.7m-2.79,8.37,5.21-.1A6.19,6.19,0,0,0,87,40.2l-3.75,3.62a11.41,11.41,0,0,1-2.79-6.73m4,7.9L88,41.25a6.38,6.38,0,0,0,3.14,1.3l-.08,5.21A11.34,11.34,0,0,1,84.42,45m8.35,2.78-.1-5.21a6.36,6.36,0,0,0,3.21-1.34L99.49,45a11.39,11.39,0,0,1-6.73,2.79m7.91-4-3.74-3.63A6.3,6.3,0,0,0,98.23,37l5.21.1a11.4,11.4,0,0,1-2.77,6.71"
                transform="translate(-4.91 -7.38)" />
        </g>
    </g>
    <g id="Data_Platform" data-name="Data Platform" class="cls-2">
        <g class="cls-2">
            <path class="cls-1"
                d="M26.24,61.94H31c3.43,0,5.79,2.07,5.79,5.25S34.44,72.44,31,72.44H26.24Zm4.65,8.5a3.26,3.26,0,1,0,0-6.51H28.67v6.51Z"
                transform="translate(-4.91 -7.38)" />
            <path class="cls-1"
                d="M45.6,67.83v4.61H43.41v-1A2.63,2.63,0,0,1,41,72.56c-1.89,0-3-1-3-2.45s1-2.41,3.46-2.41h1.86c0-1-.6-1.59-1.86-1.59a3.83,3.83,0,0,0-2.32.75l-.84-1.64a6.19,6.19,0,0,1,3.48-1C44.18,64.25,45.6,65.39,45.6,67.83Zm-2.34,2.06v-.83h-1.6c-1.1,0-1.44.41-1.44,1s.49,1,1.32,1A1.72,1.72,0,0,0,43.26,69.89Z"
                transform="translate(-4.91 -7.38)" />
            <path class="cls-1"
                d="M52.92,72.05a3.37,3.37,0,0,1-1.9.51c-1.91,0-3-1-3-2.9V66.35H46.76v-1.8H48v-2h2.34v2h2v1.8h-2v3.28a1,1,0,0,0,1,1.07,1.6,1.6,0,0,0,.94-.3Z"
                transform="translate(-4.91 -7.38)" />
            <path class="cls-1"
                d="M61.38,67.83v4.61H59.19v-1a2.63,2.63,0,0,1-2.46,1.13c-1.89,0-3-1-3-2.45s1-2.41,3.46-2.41H59c0-1-.6-1.59-1.86-1.59a3.83,3.83,0,0,0-2.32.75L54,65.22a6.19,6.19,0,0,1,3.48-1C60,64.25,61.38,65.39,61.38,67.83ZM59,69.89v-.83h-1.6c-1.1,0-1.44.41-1.44,1s.49,1,1.32,1A1.72,1.72,0,0,0,59,69.89Z"
                transform="translate(-4.91 -7.38)" />
            <path class="cls-1"
                d="M77,65.75c0,2.34-1.75,3.79-4.56,3.79H70.34v2.9H67.91V61.94h4.54C75.26,61.94,77,63.39,77,65.75Zm-2.46,0c0-1.16-.75-1.83-2.23-1.83h-2v3.64h2C73.8,67.56,74.55,66.89,74.55,65.75Z"
                transform="translate(-4.91 -7.38)" />
            <path class="cls-1" d="M78.72,61.31h2.34V72.44H78.72Z" transform="translate(-4.91 -7.38)" />
            <path class="cls-1"
                d="M90.38,67.83v4.61H88.19v-1a2.65,2.65,0,0,1-2.46,1.13c-1.89,0-3-1-3-2.45s1-2.41,3.47-2.41H88c0-1-.6-1.59-1.86-1.59a3.86,3.86,0,0,0-2.33.75L83,65.22a6.21,6.21,0,0,1,3.48-1C89,64.25,90.38,65.39,90.38,67.83ZM88,69.89v-.83H86.43c-1.09,0-1.44.41-1.44,1s.5,1,1.32,1A1.73,1.73,0,0,0,88,69.89Z"
                transform="translate(-4.91 -7.38)" />
            <path class="cls-1"
                d="M97.7,72.05a3.4,3.4,0,0,1-1.91.51c-1.9,0-3-1-3-2.9V66.35H91.53v-1.8h1.25v-2h2.34v2h2v1.8h-2v3.28a.94.94,0,0,0,1,1.07,1.63,1.63,0,0,0,.95-.3Z"
                transform="translate(-4.91 -7.38)" />
            <path class="cls-1"
                d="M101.58,64.55h2.07v1.8h-2v6.09H99.3V66.35H98.06v-1.8H99.3v-.36a2.81,2.81,0,0,1,3.12-3,3.35,3.35,0,0,1,1.79.43l-.62,1.7a1.61,1.61,0,0,0-.94-.29c-.69,0-1.07.38-1.07,1.17Z"
                transform="translate(-4.91 -7.38)" />
            <path class="cls-1"
                d="M104.12,68.4a4.44,4.44,0,1,1,4.44,4.16A4.15,4.15,0,0,1,104.12,68.4Zm6.49,0a2.07,2.07,0,1,0-2,2.24A2,2,0,0,0,110.61,68.4Z"
                transform="translate(-4.91 -7.38)" />
            <path class="cls-1"
                d="M119.55,64.25v2.16a4.67,4.67,0,0,0-.52,0,2,2,0,0,0-2.15,2.25v3.81h-2.34V64.37h2.24v1.06A3.25,3.25,0,0,1,119.55,64.25Z"
                transform="translate(-4.91 -7.38)" />
            <path class="cls-1"
                d="M134.58,67.82v4.62h-2.34V68.18c0-1.31-.58-1.91-1.53-1.91s-1.78.68-1.78,2.12v4h-2.34V68.18c0-1.31-.56-1.91-1.53-1.91s-1.77.68-1.77,2.12v4H121V64.37h2.23v.93a3.27,3.27,0,0,1,2.54-1,3,3,0,0,1,2.65,1.32,3.63,3.63,0,0,1,2.91-1.32C133.2,64.25,134.58,65.36,134.58,67.82Z"
                transform="translate(-4.91 -7.38)" />
        </g>
    </g>
</svg>