<svg id="Layer_1" data-name="Layer 1" xmlns="http://www.w3.org/2000/svg" viewBox="0 0 177.33 362.37">
    <defs>
        <style>
            .cls-1 {
                fill: #274864;
            }
        </style>
    </defs>
    <path class="cls-1" d="M182.56,186.18v19.43a34.22,34.22,0,0,0,1.37-9.6v-.21A34.25,34.25,0,0,0,182.56,186.18Z"
        transform="translate(-6.6 -6.86)" />
    <path class="cls-1" d="M182.56,6.86h-4.39a22.29,22.29,0,0,1,4.39.46Z" transform="translate(-6.6 -6.86)" />
    <path class="cls-1"
        d="M178,44.72a22.61,22.61,0,0,0,4.57-.49V7.32a22.29,22.29,0,0,0-4.39-.46c-11.49,0-19.83,8.47-19.85,18.92v.13C158.34,36.36,166.58,44.68,178,44.72Z"
        transform="translate(-6.6 -6.86)" />
    <path class="cls-1"
        d="M67.44,86.49c11.47,0,19.81-8.51,19.84-18.94v-.13C87.25,57,79,48.68,67.61,48.64h0c-11.49,0-19.81,8.48-19.85,18.91v.14C47.79,78.15,56,86.48,67.44,86.49Z"
        transform="translate(-6.6 -6.86)" />
    <path class="cls-1"
        d="M41.06,125.06c11.47,0,19.83-8.51,19.84-19V106c0-10.44-8.29-18.75-19.67-18.77h0c-11.49,0-19.83,8.47-19.84,18.9v.15C21.4,116.69,29.63,125,41.06,125.06Z"
        transform="translate(-6.6 -6.86)" />
    <path class="cls-1" d="M167.34,337.63v.14a18.64,18.64,0,0,0,15.22,18.35V319.21A18.77,18.77,0,0,0,167.34,337.63Z"
        transform="translate(-6.6 -6.86)" />
    <path class="cls-1"
        d="M45.85,210.34v.15c0,10.45,8.25,18.78,19.66,18.8s19.84-8.51,19.85-18.94v-.13c0-10.45-8.29-18.74-19.67-18.78h0C54.19,191.46,45.86,199.91,45.85,210.34Z"
        transform="translate(-6.6 -6.86)" />
    <path class="cls-1"
        d="M67.6,146.39h0c-11.49,0-19.8,8.51-19.81,18.93v.16c0,10.46,8.26,18.75,19.67,18.79s19.79-8.48,19.81-19v-.11C87.25,154.76,79,146.43,67.6,146.39Z"
        transform="translate(-6.6 -6.86)" />
    <path class="cls-1"
        d="M46.13,185.93v-.15c0-10.44-8.28-18.73-19.67-18.77h0c-11.5,0-19.82,8.47-19.86,18.92v.14c0,10.45,8.27,18.77,19.7,18.81S46.12,196.36,46.13,185.93Z"
        transform="translate(-6.6 -6.86)" />
    <path class="cls-1"
        d="M140.88,327.84c-12.39,0-21.6,9.29-21.6,20.68v.17c0,11.43,9.11,20.55,21.43,20.55s21.6-9.26,21.6-20.73v-.1C162.31,337,153.16,327.84,140.88,327.84Z"
        transform="translate(-6.6 -6.86)" />
    <path class="cls-1"
        d="M143.87,305.54v-.1c0-10.44-8.3-18.78-19.67-18.82s-19.84,8.52-19.85,18.92v.18c0,10.45,8.24,18.75,19.67,18.76S143.83,316,143.87,305.54Z"
        transform="translate(-6.6 -6.86)" />
    <path class="cls-1"
        d="M83,305.79c-11.48,0-19.78,8.47-19.82,18.93v.12c0,10.46,8.26,18.79,19.67,18.82s19.79-8.51,19.83-18.94v-.15C102.65,314.12,94.43,305.82,83,305.79Z"
        transform="translate(-6.6 -6.86)" />
    <path class="cls-1"
        d="M39.28,285.9h0c-11.48,0-19.82,8.53-19.84,18.92V305c0,10.45,8.25,18.76,19.68,18.79S58.93,315.28,59,304.82v-.11C58.93,294.26,50.67,285.93,39.28,285.9Z"
        transform="translate(-6.6 -6.86)" />
    <path class="cls-1"
        d="M80.92,297c19.38,0,33.57-14.39,33.6-32.11v-.22c0-17.7-14.1-31.84-33.34-31.88h0c-19.4,0-33.58,14.4-33.62,32.1v.23C47.61,282.86,61.64,297,80.92,297Z"
        transform="translate(-6.6 -6.86)" />
    <path class="cls-1"
        d="M122.1,78.42c19.36,0,33.54-14.38,33.55-32.13v-.2c0-17.71-14.05-31.86-33.33-31.89S88.78,28.6,88.76,46.29v.24C88.78,64.27,102.82,78.38,122.1,78.42Z"
        transform="translate(-6.6 -6.86)" />
    <path class="cls-1"
        d="M138.88,102.2v.24c0,17.73,14.06,31.84,33.33,31.87a36.61,36.61,0,0,0,10.35-1.47V71.5a37,37,0,0,0-10.07-1.4h0C153.08,70.14,138.91,84.5,138.88,102.2Z"
        transform="translate(-6.6 -6.86)" />
    <path class="cls-1"
        d="M148.26,230.21c-20.34,0-35.4-15.1-35.4-34V196c0-18.89,15.2-34.16,35.64-34.16,16.75,0,29.91,10.2,34.06,24.33V151a59.47,59.47,0,0,0-34-10.25c-33.19,0-57.67,24.72-57.68,55.18v.42c0,30.46,24.28,54.78,57.27,54.82a59.69,59.69,0,0,0,34.38-10.5v-35.1C178.39,219.82,165.11,230.21,148.26,230.21Z"
        transform="translate(-6.6 -6.86)" />
    <path class="cls-1"
        d="M155.56,280.28v.24c0,15.72,11.07,28.58,27,31.33V296.13a16.55,16.55,0,0,1-11.13-15.71v-.13a16.75,16.75,0,0,1,11.13-15.77V248.79C166.63,251.66,155.58,264.68,155.56,280.28Z"
        transform="translate(-6.6 -6.86)" />
    <path class="cls-1"
        d="M132.51,115v-.19c0-17.73-14.07-31.88-33.33-31.92S65.62,97.37,65.6,115v.27c0,17.68,14.07,31.85,33.34,31.88S132.48,132.79,132.51,115Zm-51.08.13v-.1c0-9.36,7.53-16.93,17.68-16.93s17.55,7.47,17.55,16.83v.1c0,9.35-7.54,16.92-17.68,16.92S81.43,124.53,81.43,115.17Z"
        transform="translate(-6.6 -6.86)" />
</svg>